# xmcd
#
# Track frame offsets:
#	150
#	15398
#	31875
#	47827
#	65126
#	81004
#	95765
#	123536
#	155845
#	176374
#	195316
#	211077
#	224582
#	241063
#
# Disc length: 3518 seconds
#
# Revision: 1
# Processed by: cddbd v1.5.2PL0 Copyright (c) Steve Scherf et al.
# Submitted via: audiograbber 1.83.01
#
DISCID=bd0dbc0e
DTITLE=Bluesberry Marmalade - Bluesberry Marmalade
DYEAR=2005
DGENRE=Blues
TTITLE0=Let the Four Winds Blow
TTITLE1=Two Headed Woman
TTITLE2=Hardwood Floor
TTITLE3=Lucky Old Sun
TTITLE4=Voodoo Woman
TTITLE5=Mary Ann
TTITLE6=Come to Papa
TTITLE7=Rainy Night in Georgia
TTITLE8=Help Me
TTITLE9=Your Mama Don't Know
TTITLE10=Up the Line
TTITLE11=I Feel Like Going Home
TTITLE12=Mellow Down Easy
TTITLE13=Soul Rocket
EXTD=Seattle based Blues Band
EXTT0=
EXTT1=
EXTT2=
EXTT3=
EXTT4=
EXTT5=
EXTT6=
EXTT7=
EXTT8=
EXTT9=
EXTT10=
EXTT11=
EXTT12=
EXTT13=
PLAYORDER=
